<?xml version="1.0" encoding="utf-8"?>
<!-- Generator: Adobe Illustrator 16.0.0, SVG Export Plug-In . SVG Version: 6.00 Build 0)  -->
<!DOCTYPE svg PUBLIC "-//W3C//DTD SVG 1.1//EN" "http://www.w3.org/Graphics/SVG/1.1/DTD/svg11.dtd">
<svg version="1.1" id="Layer_1" xmlns="http://www.w3.org/2000/svg" xmlns:xlink="http://www.w3.org/1999/xlink" x="0px" y="0px"
	 width="882px" height="180px" viewBox="0 0 882 180" enable-background="new 0 0 882 180" xml:space="preserve">
<rect fill="#0F1C3C" width="882" height="180"/>
<g>
	<path fill="#FFFFFF" d="M341.341,104.473c0,0.22-0.021,0.474-0.063,0.762c-0.042,0.288-0.152,0.563-0.33,0.825
		c-0.178,0.263-0.436,0.487-0.774,0.673c-0.339,0.186-0.796,0.279-1.371,0.279c-0.644,0-1.151-0.089-1.523-0.267
		c-0.373-0.178-0.656-0.397-0.851-0.66c-0.195-0.262-0.322-0.537-0.381-0.825c-0.06-0.288-0.089-0.55-0.089-0.787v-1.523
		c-0.813,1.202-1.85,2.18-3.11,2.933c-1.261,0.753-2.814,1.13-4.659,1.13c-0.322,0-0.821-0.025-1.498-0.076
		c-0.677-0.051-1.439-0.186-2.285-0.406c-0.847-0.22-1.718-0.55-2.615-0.99c-0.897-0.44-1.714-1.054-2.45-1.841
		s-1.342-1.769-1.815-2.945c-0.474-1.176-0.711-2.611-0.711-4.304V82.23c0-1.388,0.169-2.615,0.508-3.682
		c0.338-1.066,0.783-1.993,1.333-2.78c0.55-0.787,1.181-1.447,1.892-1.98s1.438-0.978,2.184-1.333
		c1.727-0.813,3.698-1.278,5.916-1.396c1.879,0,3.487,0.212,4.824,0.635c1.337,0.423,2.471,0.974,3.402,1.65
		c0.931,0.677,1.676,1.443,2.234,2.298c0.559,0.855,0.99,1.723,1.295,2.603c0.305,0.88,0.503,1.727,0.597,2.539
		c0.093,0.813,0.14,1.515,0.14,2.107c0,0.254-0.021,0.563-0.063,0.927c-0.042,0.364-0.19,0.711-0.444,1.041
		s-0.656,0.609-1.206,0.838c-0.55,0.229-1.333,0.343-2.349,0.343c-0.355,0-0.792-0.021-1.308-0.063
		c-0.517-0.042-1.012-0.148-1.485-0.317c-0.474-0.169-0.88-0.419-1.219-0.749c-0.339-0.33-0.508-0.783-0.508-1.358
		c0-0.914-0.055-1.73-0.165-2.45c-0.11-0.719-0.309-1.333-0.597-1.841c-0.288-0.508-0.686-0.893-1.193-1.155
		c-0.508-0.262-1.16-0.394-1.955-0.394c-0.83,0-1.469,0.169-1.917,0.508c-0.449,0.339-0.774,0.711-0.978,1.117
		c-0.237,0.474-0.373,1.016-0.406,1.625v16.25c0,0.542,0.097,1.05,0.292,1.523c0.194,0.474,0.47,0.889,0.825,1.244
		s0.774,0.635,1.257,0.838s1.011,0.305,1.587,0.305c0.677,0,1.291-0.148,1.841-0.444c0.55-0.296,1.045-0.694,1.485-1.193
		c0.44-0.499,0.833-1.066,1.181-1.701c0.347-0.635,0.656-1.299,0.927-1.993h-2.438c-0.491-0.051-0.923-0.178-1.295-0.381
		c-0.339-0.169-0.639-0.423-0.901-0.762c-0.263-0.338-0.394-0.804-0.394-1.396c0-0.643,0.131-1.138,0.394-1.485
		c0.262-0.347,0.563-0.605,0.901-0.774c0.372-0.186,0.804-0.296,1.295-0.33h6.602c0.118,0,0.309,0.021,0.571,0.063
		c0.262,0.042,0.533,0.165,0.813,0.368s0.524,0.504,0.736,0.901c0.211,0.398,0.317,0.952,0.317,1.663V104.473z"/>
	<path fill="#FFFFFF" d="M366.63,101.07c0,0.711-0.025,1.409-0.076,2.095s-0.203,1.299-0.457,1.841
		c-0.254,0.542-0.635,0.978-1.143,1.308s-1.219,0.495-2.133,0.495c-0.931,0-1.659-0.156-2.184-0.47
		c-0.525-0.313-0.914-0.694-1.168-1.143c-0.254-0.448-0.411-0.918-0.47-1.409c-0.06-0.491-0.089-0.905-0.089-1.244
		c-0.152,0.491-0.368,0.99-0.647,1.498s-0.639,0.965-1.079,1.371c-0.44,0.406-0.969,0.741-1.587,1.003
		c-0.618,0.263-1.342,0.394-2.171,0.394c-0.931,0-1.862-0.152-2.793-0.457c-0.931-0.305-1.769-0.813-2.514-1.523
		c-0.745-0.711-1.35-1.638-1.815-2.78c-0.466-1.143-0.698-2.552-0.698-4.228v-7.363c0-1.692,0.232-3.11,0.698-4.253
		c0.465-1.143,1.07-2.065,1.815-2.768c0.745-0.702,1.583-1.206,2.514-1.511c0.931-0.305,1.862-0.457,2.793-0.457
		c0.829,0,1.553,0.127,2.171,0.381c0.618,0.254,1.146,0.584,1.587,0.99c0.44,0.406,0.8,0.863,1.079,1.371s0.495,1.016,0.647,1.523
		c0-0.846,0.118-1.549,0.355-2.107c0.237-0.559,0.542-1.003,0.914-1.333c0.372-0.33,0.791-0.559,1.257-0.686
		c0.465-0.127,0.927-0.19,1.384-0.19c0.846,0,1.523,0.165,2.031,0.495s0.893,0.762,1.155,1.295c0.262,0.533,0.432,1.151,0.508,1.854
		c0.076,0.703,0.114,1.418,0.114,2.146V101.07z M353.427,97.16c0,0.457,0.017,0.906,0.051,1.346c0.034,0.44,0.127,0.838,0.279,1.193
		s0.376,0.639,0.673,0.851c0.296,0.212,0.707,0.317,1.231,0.317c0.66,0,1.197-0.148,1.612-0.444c0.415-0.296,0.74-0.753,0.978-1.371
		c0.237-0.618,0.402-1.396,0.495-2.336c0.093-0.939,0.148-2.061,0.165-3.364c0-0.524-0.047-1.13-0.14-1.815
		c-0.093-0.686-0.258-1.333-0.495-1.942c-0.237-0.609-0.567-1.125-0.99-1.549c-0.423-0.423-0.965-0.635-1.625-0.635
		c-0.525,0-0.936,0.106-1.231,0.317c-0.296,0.212-0.521,0.487-0.673,0.825c-0.152,0.339-0.246,0.724-0.279,1.155
		c-0.034,0.432-0.051,0.868-0.051,1.308V97.16z"/>
	<path fill="#FFFFFF" d="M375.923,81.418v-4.469c0-0.711,0.038-1.405,0.114-2.082c0.076-0.677,0.25-1.282,0.521-1.815
		c0.271-0.533,0.66-0.965,1.168-1.295s1.193-0.495,2.057-0.495c0.846,0,1.523,0.165,2.031,0.495s0.893,0.762,1.155,1.295
		c0.262,0.533,0.432,1.139,0.508,1.815c0.076,0.677,0.114,1.371,0.114,2.082v4.469h2.082c0.44,0,0.88,0.021,1.32,0.063
		c0.44,0.042,0.833,0.165,1.181,0.368c0.347,0.203,0.626,0.508,0.838,0.914c0.211,0.406,0.317,0.974,0.317,1.701
		c0,0.694-0.106,1.244-0.317,1.65c-0.212,0.406-0.491,0.711-0.838,0.914c-0.347,0.203-0.741,0.334-1.181,0.394
		c-0.44,0.06-0.88,0.089-1.32,0.089h-2.082v8.887c0,0.339,0.013,0.698,0.038,1.079s0.114,0.732,0.267,1.054
		c0.152,0.322,0.381,0.588,0.686,0.8c0.305,0.212,0.736,0.317,1.295,0.317c0.609,0,1.13,0.047,1.562,0.14
		c0.432,0.093,0.787,0.258,1.066,0.495c0.279,0.237,0.486,0.567,0.622,0.99c0.135,0.423,0.203,0.965,0.203,1.625
		c0,0.677-0.157,1.261-0.47,1.752c-0.313,0.491-0.732,0.897-1.257,1.219c-0.525,0.322-1.134,0.559-1.828,0.711
		c-0.694,0.152-1.422,0.229-2.184,0.229c-1.202,0-2.23-0.127-3.085-0.381c-0.855-0.254-1.566-0.613-2.133-1.079
		c-0.567-0.465-1.016-1.024-1.346-1.676c-0.33-0.651-0.576-1.384-0.736-2.196c-0.161-0.813-0.263-1.688-0.305-2.628
		c-0.042-0.939-0.063-1.925-0.063-2.958v-8.379h-1.422c-0.44,0-0.876-0.029-1.308-0.089c-0.432-0.059-0.817-0.19-1.155-0.394
		c-0.339-0.203-0.614-0.508-0.825-0.914c-0.212-0.406-0.317-0.956-0.317-1.65c0-0.728,0.105-1.295,0.317-1.701
		c0.211-0.406,0.486-0.711,0.825-0.914c0.338-0.203,0.724-0.326,1.155-0.368c0.432-0.042,0.867-0.063,1.308-0.063H375.923z"/>
	<path fill="#FFFFFF" d="M415.228,92.336c0,0.271-0.017,0.588-0.051,0.952c-0.034,0.364-0.165,0.711-0.394,1.041
		s-0.588,0.614-1.079,0.851c-0.491,0.237-1.185,0.355-2.082,0.355h-10.105v2.438c0,0.406,0.051,0.83,0.152,1.27
		c0.102,0.44,0.275,0.847,0.521,1.219c0.245,0.373,0.571,0.677,0.978,0.914c0.406,0.237,0.905,0.355,1.498,0.355
		c0.677,0,1.197-0.08,1.562-0.241c0.364-0.161,0.651-0.359,0.863-0.597c0.211-0.237,0.402-0.491,0.571-0.762
		c0.169-0.271,0.394-0.524,0.673-0.762c0.279-0.237,0.668-0.436,1.168-0.597c0.499-0.161,1.189-0.241,2.069-0.241
		c0.423,0,0.833,0.034,1.231,0.102c0.397,0.068,0.749,0.195,1.054,0.381c0.305,0.187,0.55,0.444,0.736,0.774
		c0.186,0.33,0.279,0.758,0.279,1.282c0,1.101-0.347,2.019-1.041,2.755c-0.694,0.736-1.566,1.325-2.615,1.765
		c-1.05,0.44-2.188,0.753-3.415,0.939c-1.228,0.187-2.374,0.279-3.44,0.279c-1.405-0.017-2.742-0.194-4.012-0.533
		c-1.27-0.338-2.391-0.88-3.364-1.625c-0.974-0.745-1.748-1.718-2.323-2.92c-0.576-1.202-0.863-2.674-0.863-4.418v-5.941
		c0-1.608,0.19-2.971,0.571-4.088s0.876-2.048,1.485-2.793c0.609-0.745,1.295-1.324,2.057-1.739
		c0.762-0.415,1.532-0.724,2.311-0.927c0.778-0.203,1.519-0.33,2.222-0.381c0.702-0.051,1.308-0.076,1.815-0.076
		c1.709,0,3.169,0.152,4.38,0.457c1.21,0.305,2.222,0.703,3.034,1.193c0.813,0.491,1.456,1.058,1.93,1.701
		c0.474,0.644,0.829,1.308,1.066,1.993c0.237,0.686,0.389,1.38,0.457,2.082c0.067,0.703,0.102,1.358,0.102,1.968V92.336z
		 M401.517,91.727h6.348c0-0.795-0.021-1.502-0.063-2.12c-0.042-0.618-0.169-1.138-0.381-1.562c-0.212-0.423-0.542-0.745-0.99-0.965
		c-0.449-0.22-1.088-0.33-1.917-0.33c-0.694,0-1.24,0.11-1.638,0.33c-0.398,0.22-0.698,0.495-0.901,0.825s-0.33,0.682-0.381,1.054
		c-0.051,0.373-0.076,0.703-0.076,0.99V91.727z"/>
	<path fill="#FFFFFF" d="M421.17,76.898c0-0.711,0.025-1.405,0.076-2.082c0.051-0.677,0.193-1.278,0.432-1.803
		c0.236-0.524,0.596-0.948,1.078-1.27c0.482-0.321,1.156-0.482,2.02-0.482c0.879,0,1.561,0.161,2.043,0.482
		c0.482,0.322,0.838,0.745,1.066,1.27c0.229,0.525,0.369,1.126,0.42,1.803c0.051,0.677,0.076,1.371,0.076,2.082v10.004h0.406
		l5.23-6.145c0.305-0.355,0.66-0.613,1.066-0.774c0.406-0.161,0.828-0.241,1.27-0.241c0.422,0,0.85,0.081,1.281,0.241
		c0.432,0.161,0.813,0.39,1.143,0.686c0.33,0.296,0.602,0.652,0.813,1.066c0.213,0.415,0.318,0.885,0.318,1.409
		c0,0.677-0.238,1.304-0.711,1.879l-4.57,5.383l4.977,9.496c0.305,0.609,0.566,1.223,0.787,1.841c0.219,0.618,0.33,1.206,0.33,1.765
		c0,0.542-0.119,1.024-0.355,1.447c-0.238,0.423-0.547,0.774-0.928,1.054s-0.803,0.491-1.27,0.635
		c-0.465,0.144-0.918,0.216-1.357,0.216c-0.559,0-1.059-0.135-1.498-0.406c-0.441-0.271-0.826-0.605-1.156-1.003
		c-0.33-0.397-0.621-0.825-0.875-1.282s-0.467-0.88-0.635-1.27l-2.844-6.043h-1.422v4.266c0,0.711-0.025,1.409-0.076,2.095
		s-0.191,1.295-0.42,1.828s-0.584,0.961-1.066,1.282c-0.482,0.322-1.164,0.482-2.043,0.482c-0.863,0-1.537-0.161-2.02-0.482
		c-0.482-0.321-0.842-0.749-1.078-1.282c-0.238-0.533-0.381-1.143-0.432-1.828s-0.076-1.384-0.076-2.095V76.898z"/>
	<path fill="#FFFFFF" d="M466.873,92.336c0,0.271-0.017,0.588-0.051,0.952c-0.034,0.364-0.165,0.711-0.394,1.041
		s-0.588,0.614-1.079,0.851c-0.491,0.237-1.185,0.355-2.082,0.355h-10.105v2.438c0,0.406,0.051,0.83,0.152,1.27
		c0.102,0.44,0.275,0.847,0.521,1.219c0.245,0.373,0.571,0.677,0.978,0.914c0.406,0.237,0.905,0.355,1.498,0.355
		c0.677,0,1.197-0.08,1.562-0.241c0.364-0.161,0.651-0.359,0.863-0.597c0.212-0.237,0.402-0.491,0.571-0.762
		c0.169-0.271,0.394-0.524,0.673-0.762c0.279-0.237,0.669-0.436,1.168-0.597c0.499-0.161,1.189-0.241,2.069-0.241
		c0.423,0,0.834,0.034,1.231,0.102c0.397,0.068,0.749,0.195,1.054,0.381c0.305,0.187,0.55,0.444,0.736,0.774
		s0.279,0.758,0.279,1.282c0,1.101-0.347,2.019-1.041,2.755s-1.565,1.325-2.615,1.765c-1.05,0.44-2.188,0.753-3.415,0.939
		c-1.228,0.187-2.374,0.279-3.44,0.279c-1.405-0.017-2.742-0.194-4.012-0.533c-1.27-0.338-2.391-0.88-3.364-1.625
		c-0.974-0.745-1.748-1.718-2.323-2.92c-0.575-1.202-0.863-2.674-0.863-4.418v-5.941c0-1.608,0.19-2.971,0.571-4.088
		s0.876-2.048,1.485-2.793c0.609-0.745,1.295-1.324,2.057-1.739c0.762-0.415,1.532-0.724,2.311-0.927s1.52-0.33,2.222-0.381
		s1.308-0.076,1.815-0.076c1.71,0,3.17,0.152,4.38,0.457s2.222,0.703,3.034,1.193c0.813,0.491,1.456,1.058,1.93,1.701
		c0.474,0.644,0.829,1.308,1.066,1.993s0.39,1.38,0.457,2.082c0.067,0.703,0.102,1.358,0.102,1.968V92.336z M453.162,91.727h6.348
		c0-0.795-0.021-1.502-0.063-2.12c-0.042-0.618-0.169-1.138-0.381-1.562c-0.212-0.423-0.542-0.745-0.99-0.965
		c-0.448-0.22-1.088-0.33-1.917-0.33c-0.694,0-1.24,0.11-1.638,0.33c-0.397,0.22-0.698,0.495-0.901,0.825s-0.33,0.682-0.381,1.054
		c-0.051,0.373-0.076,0.703-0.076,0.99V91.727z"/>
	<path fill="#FFFFFF" d="M492.771,92.336c0,0.271-0.017,0.588-0.051,0.952c-0.034,0.364-0.165,0.711-0.394,1.041
		s-0.588,0.614-1.079,0.851c-0.491,0.237-1.185,0.355-2.082,0.355h-10.105v2.438c0,0.406,0.051,0.83,0.152,1.27
		c0.102,0.44,0.275,0.847,0.521,1.219c0.245,0.373,0.571,0.677,0.978,0.914c0.406,0.237,0.905,0.355,1.498,0.355
		c0.677,0,1.197-0.08,1.562-0.241c0.364-0.161,0.651-0.359,0.863-0.597c0.212-0.237,0.402-0.491,0.571-0.762
		c0.169-0.271,0.394-0.524,0.673-0.762c0.279-0.237,0.669-0.436,1.168-0.597c0.499-0.161,1.189-0.241,2.069-0.241
		c0.423,0,0.834,0.034,1.231,0.102c0.397,0.068,0.749,0.195,1.054,0.381c0.305,0.187,0.55,0.444,0.736,0.774
		s0.279,0.758,0.279,1.282c0,1.101-0.347,2.019-1.041,2.755s-1.565,1.325-2.615,1.765c-1.05,0.44-2.188,0.753-3.415,0.939
		c-1.228,0.187-2.374,0.279-3.44,0.279c-1.405-0.017-2.742-0.194-4.012-0.533c-1.27-0.338-2.391-0.88-3.364-1.625
		c-0.974-0.745-1.748-1.718-2.323-2.92c-0.575-1.202-0.863-2.674-0.863-4.418v-5.941c0-1.608,0.19-2.971,0.571-4.088
		s0.876-2.048,1.485-2.793c0.609-0.745,1.295-1.324,2.057-1.739c0.762-0.415,1.532-0.724,2.311-0.927s1.52-0.33,2.222-0.381
		s1.308-0.076,1.815-0.076c1.71,0,3.17,0.152,4.38,0.457s2.222,0.703,3.034,1.193c0.813,0.491,1.456,1.058,1.93,1.701
		c0.474,0.644,0.829,1.308,1.066,1.993s0.39,1.38,0.457,2.082c0.067,0.703,0.102,1.358,0.102,1.968V92.336z M479.061,91.727h6.348
		c0-0.795-0.021-1.502-0.063-2.12c-0.042-0.618-0.169-1.138-0.381-1.562c-0.212-0.423-0.542-0.745-0.99-0.965
		c-0.448-0.22-1.088-0.33-1.917-0.33c-0.694,0-1.24,0.11-1.638,0.33c-0.397,0.22-0.698,0.495-0.901,0.825s-0.33,0.682-0.381,1.054
		c-0.051,0.373-0.076,0.703-0.076,0.99V91.727z"/>
	<path fill="#FFFFFF" d="M498.256,87.156c0-0.711,0.025-1.409,0.076-2.095s0.203-1.299,0.457-1.841
		c0.254-0.542,0.635-0.978,1.143-1.308s1.219-0.495,2.133-0.495c0.931,0,1.659,0.157,2.184,0.47
		c0.524,0.313,0.914,0.694,1.168,1.143c0.254,0.449,0.41,0.918,0.47,1.409c0.06,0.491,0.089,0.906,0.089,1.244
		c0.152-0.491,0.368-0.99,0.647-1.498s0.639-0.965,1.079-1.371s0.969-0.74,1.587-1.003c0.618-0.262,1.342-0.394,2.171-0.394
		c0.931,0,1.862,0.152,2.793,0.457s1.769,0.813,2.514,1.523s1.35,1.638,1.815,2.78s0.698,2.552,0.698,4.228v7.363
		c0,1.693-0.232,3.11-0.698,4.253s-1.07,2.065-1.815,2.768c-0.745,0.703-1.583,1.206-2.514,1.511s-1.862,0.457-2.793,0.457
		c-0.829,0-1.553-0.127-2.171-0.381s-1.146-0.584-1.587-0.99s-0.8-0.863-1.079-1.371s-0.495-1.016-0.647-1.523v8.684
		c0,0.745-0.038,1.464-0.114,2.158c-0.076,0.694-0.245,1.308-0.508,1.841s-0.656,0.965-1.181,1.295s-1.228,0.495-2.107,0.495
		c-0.847,0-1.523-0.165-2.031-0.495s-0.893-0.762-1.155-1.295s-0.432-1.147-0.508-1.841c-0.076-0.694-0.114-1.414-0.114-2.158
		V87.156z M511.459,91.066c0-0.457-0.017-0.905-0.051-1.346c-0.034-0.44-0.127-0.838-0.279-1.193s-0.377-0.639-0.673-0.851
		c-0.296-0.211-0.707-0.317-1.231-0.317c-0.66,0-1.197,0.148-1.612,0.444c-0.415,0.296-0.74,0.753-0.978,1.371
		c-0.237,0.618-0.402,1.401-0.495,2.349c-0.093,0.948-0.148,2.065-0.165,3.352c0,0.542,0.047,1.155,0.14,1.841
		s0.258,1.333,0.495,1.942s0.567,1.122,0.99,1.536c0.423,0.415,0.965,0.622,1.625,0.622c0.524,0,0.936-0.105,1.231-0.317
		c0.296-0.211,0.521-0.486,0.673-0.825c0.152-0.338,0.245-0.724,0.279-1.155s0.051-0.867,0.051-1.308V91.066z"/>
	<path fill="#FFFFFF" d="M545.635,92.336c0,0.271-0.017,0.588-0.051,0.952c-0.034,0.364-0.165,0.711-0.394,1.041
		s-0.588,0.614-1.079,0.851c-0.491,0.237-1.185,0.355-2.082,0.355h-10.105v2.438c0,0.406,0.051,0.83,0.152,1.27
		c0.102,0.44,0.275,0.847,0.521,1.219c0.245,0.373,0.571,0.677,0.978,0.914c0.406,0.237,0.905,0.355,1.498,0.355
		c0.677,0,1.197-0.08,1.562-0.241c0.364-0.161,0.651-0.359,0.863-0.597c0.212-0.237,0.402-0.491,0.571-0.762
		c0.169-0.271,0.394-0.524,0.673-0.762c0.279-0.237,0.669-0.436,1.168-0.597c0.499-0.161,1.189-0.241,2.069-0.241
		c0.423,0,0.834,0.034,1.231,0.102c0.397,0.068,0.749,0.195,1.054,0.381c0.305,0.187,0.55,0.444,0.736,0.774
		s0.279,0.758,0.279,1.282c0,1.101-0.347,2.019-1.041,2.755s-1.565,1.325-2.615,1.765c-1.05,0.44-2.188,0.753-3.415,0.939
		c-1.228,0.187-2.374,0.279-3.44,0.279c-1.405-0.017-2.742-0.194-4.012-0.533c-1.27-0.338-2.391-0.88-3.364-1.625
		c-0.974-0.745-1.748-1.718-2.323-2.92c-0.575-1.202-0.863-2.674-0.863-4.418v-5.941c0-1.608,0.19-2.971,0.571-4.088
		s0.876-2.048,1.485-2.793c0.609-0.745,1.295-1.324,2.057-1.739c0.762-0.415,1.532-0.724,2.311-0.927s1.52-0.33,2.222-0.381
		s1.308-0.076,1.815-0.076c1.71,0,3.17,0.152,4.38,0.457s2.222,0.703,3.034,1.193c0.813,0.491,1.456,1.058,1.93,1.701
		c0.474,0.644,0.829,1.308,1.066,1.993s0.39,1.38,0.457,2.082c0.067,0.703,0.102,1.358,0.102,1.968V92.336z M531.924,91.727h6.348
		c0-0.795-0.021-1.502-0.063-2.12c-0.042-0.618-0.169-1.138-0.381-1.562c-0.212-0.423-0.542-0.745-0.99-0.965
		c-0.448-0.22-1.088-0.33-1.917-0.33c-0.694,0-1.24,0.11-1.638,0.33c-0.397,0.22-0.698,0.495-0.901,0.825s-0.33,0.682-0.381,1.054
		c-0.051,0.373-0.076,0.703-0.076,0.99V91.727z"/>
	<path fill="#FFFFFF" d="M567.318,85.227c0,1.32-0.326,2.285-0.978,2.895s-1.578,0.914-2.78,0.914c-0.169,0-0.41,0.013-0.724,0.038
		s-0.647,0.093-1.003,0.203c-0.355,0.11-0.715,0.271-1.079,0.482c-0.364,0.212-0.698,0.5-1.003,0.863
		c-0.305,0.364-0.55,0.825-0.736,1.384s-0.279,1.228-0.279,2.006v7.262c0,0.694-0.038,1.371-0.114,2.031s-0.25,1.249-0.521,1.765
		c-0.271,0.517-0.66,0.936-1.168,1.257c-0.508,0.322-1.193,0.482-2.057,0.482c-0.847,0-1.515-0.161-2.006-0.482
		c-0.491-0.321-0.867-0.74-1.13-1.257c-0.263-0.516-0.432-1.104-0.508-1.765s-0.114-1.337-0.114-2.031V87.055
		c0-0.711,0.038-1.4,0.114-2.069c0.076-0.668,0.245-1.265,0.508-1.79c0.263-0.524,0.639-0.943,1.13-1.257
		c0.491-0.313,1.159-0.47,2.006-0.47c0.863,0,1.527,0.19,1.993,0.571s0.809,0.872,1.028,1.473c0.22,0.601,0.347,1.27,0.381,2.006
		s0.051,1.452,0.051,2.146h0.406c0.237-0.948,0.55-1.807,0.939-2.577c0.39-0.77,0.821-1.422,1.295-1.955s0.981-0.943,1.523-1.231
		c0.542-0.288,1.083-0.432,1.625-0.432c0.66,0,1.197,0.072,1.612,0.216c0.415,0.144,0.74,0.368,0.978,0.673s0.397,0.694,0.482,1.168
		C567.276,84,567.318,84.566,567.318,85.227z"/>
</g>
</svg>
